<svg width="1024" height="1024" viewBox="0 0 1024 1024" fill="none" xmlns="http://www.w3.org/2000/svg">
<rect width="1024" height="1024" fill="white"/>
<rect width="1024" height="1024" fill="#F7F5F0"/>
<path d="M874.991 277.6V293.6C864.857 295.733 853.657 301.867 841.391 312C829.124 321.6 819.257 338.667 811.791 363.2L660.591 848C659.524 848 658.457 848 657.391 848C656.324 848 655.257 848 654.191 848C653.124 848 652.057 848 650.991 848C649.924 848 648.857 848 647.791 848L478.191 344.8C471.257 324 463.524 310.4 454.991 304C446.457 297.6 438.457 294.133 430.991 293.6V277.6C440.591 278.133 452.591 278.667 466.991 279.2C481.391 279.733 495.257 280 508.591 280C529.391 280 548.857 279.733 566.991 279.2C585.124 278.667 599.791 278.133 610.991 277.6V293.6C594.991 294.133 582.191 295.733 572.591 298.4C563.524 301.067 558.191 306.933 556.591 316C555.524 325.067 558.191 340 564.591 360.8L683.791 729.6L672.591 739.2L778.191 407.2C787.791 377.867 792.057 355.2 790.991 339.2C790.457 322.667 784.591 311.2 773.391 304.8C762.191 297.867 745.391 294.133 722.991 293.6V277.6C738.457 278.133 754.191 278.667 770.191 279.2C786.191 279.733 801.124 280 814.991 280C828.857 280 840.324 279.733 849.391 279.2C858.457 278.667 866.991 278.133 874.991 277.6ZM315.791 277.6V293.6C301.924 294.667 291.791 297.333 285.391 301.6C279.524 305.867 276.591 312.8 276.591 322.4C277.124 331.467 280.057 344.267 285.391 360.8L409.391 739.2L389.391 759.2L501.391 401.6L513.391 420.8L381.391 848C380.324 848 379.257 848 378.191 848C377.124 848 376.057 848 374.991 848C373.924 848 372.857 848 371.791 848C370.724 848 369.657 848 368.591 848L198.991 344.8C192.057 324 183.257 310.4 172.591 304C161.924 297.6 152.324 294.133 143.791 293.6V277.6C154.457 278.133 167.524 278.667 182.991 279.2C198.991 279.733 214.457 280 229.391 280C246.991 280 263.257 279.733 278.191 279.2C293.657 278.667 306.191 278.133 315.791 277.6Z" fill="#2D5A3D"/>
<circle cx="228.5" cy="241.5" r="39.5" fill="#2D5A3D"/>
<path d="M844 241.5C844 263.315 826.315 281 804.5 281C782.685 281 765 263.315 765 241.5C765 219.685 782.685 202 804.5 202C826.315 202 844 219.685 844 241.5Z" fill="#2D5A3D"/>
<path d="M229 205.833C453.882 118.14 580 116.938 804.996 207.465" stroke="#2D5A3D" stroke-width="8"/>
</svg>
